<mxfile host="app.diagrams.net" modified="2022-12-06T22:25:09.494Z" agent="5.0 (Windows NT 10.0; Win64; x64) AppleWebKit/537.36 (KHTML, like Gecko) Chrome/108.0.0.0 Safari/537.36" etag="K60Ab4_KmL4YujBeQtiS" version="20.5.3" type="github" pages="4">
  <diagram id="FNK8iaZ5DBjKdUpcAFrB" name="Page-1">
    <mxGraphModel dx="3121" dy="1938" grid="0" gridSize="10" guides="1" tooltips="1" connect="1" arrows="1" fold="1" page="1" pageScale="1" pageWidth="827" pageHeight="1169" math="0" shadow="0">
      <root>
        <mxCell id="0" />
        <mxCell id="1" parent="0" />
        <mxCell id="TVRkaX55-N1PjVb6RJJF-32" style="edgeStyle=orthogonalEdgeStyle;rounded=0;orthogonalLoop=1;jettySize=auto;html=1;" parent="1" source="TVRkaX55-N1PjVb6RJJF-1" target="TVRkaX55-N1PjVb6RJJF-2" edge="1">
          <mxGeometry relative="1" as="geometry" />
        </mxCell>
        <mxCell id="TVRkaX55-N1PjVb6RJJF-1" value="Households generation" style="rounded=1;whiteSpace=wrap;html=1;" parent="1" vertex="1">
          <mxGeometry x="-367" y="308" width="120" height="60" as="geometry" />
        </mxCell>
        <mxCell id="TVRkaX55-N1PjVb6RJJF-33" style="edgeStyle=orthogonalEdgeStyle;rounded=0;orthogonalLoop=1;jettySize=auto;html=1;exitX=0.5;exitY=1;exitDx=0;exitDy=0;entryX=0.5;entryY=0;entryDx=0;entryDy=0;" parent="1" source="TVRkaX55-N1PjVb6RJJF-2" target="TVRkaX55-N1PjVb6RJJF-3" edge="1">
          <mxGeometry relative="1" as="geometry" />
        </mxCell>
        <mxCell id="TVRkaX55-N1PjVb6RJJF-2" value="Persons generation" style="rounded=1;whiteSpace=wrap;html=1;" parent="1" vertex="1">
          <mxGeometry x="-367" y="513" width="120" height="60" as="geometry" />
        </mxCell>
        <mxCell id="TVRkaX55-N1PjVb6RJJF-35" style="edgeStyle=orthogonalEdgeStyle;rounded=0;orthogonalLoop=1;jettySize=auto;html=1;exitX=0;exitY=0.5;exitDx=0;exitDy=0;entryX=0;entryY=0.5;entryDx=0;entryDy=0;" parent="1" source="TVRkaX55-N1PjVb6RJJF-3" target="TVRkaX55-N1PjVb6RJJF-2" edge="1">
          <mxGeometry relative="1" as="geometry">
            <Array as="points">
              <mxPoint x="-407" y="763" />
              <mxPoint x="-407" y="543" />
            </Array>
          </mxGeometry>
        </mxCell>
        <mxCell id="YO9ZZh99iOmGWYp_lecW-1" style="edgeStyle=orthogonalEdgeStyle;rounded=0;orthogonalLoop=1;jettySize=auto;html=1;exitX=0;exitY=0.5;exitDx=0;exitDy=0;entryX=0;entryY=0.5;entryDx=0;entryDy=0;dashed=1;dashPattern=1 2;" parent="1" source="TVRkaX55-N1PjVb6RJJF-3" target="TVRkaX55-N1PjVb6RJJF-1" edge="1">
          <mxGeometry relative="1" as="geometry">
            <mxPoint x="-367" y="858" as="sourcePoint" />
            <Array as="points">
              <mxPoint x="-367" y="761" />
              <mxPoint x="-447" y="761" />
              <mxPoint x="-447" y="338" />
            </Array>
          </mxGeometry>
        </mxCell>
        <mxCell id="YO9ZZh99iOmGWYp_lecW-2" value="Maybe?" style="edgeLabel;html=1;align=center;verticalAlign=middle;resizable=0;points=[];" parent="YO9ZZh99iOmGWYp_lecW-1" vertex="1" connectable="0">
          <mxGeometry x="0.088" y="-2" relative="1" as="geometry">
            <mxPoint as="offset" />
          </mxGeometry>
        </mxCell>
        <mxCell id="TVRkaX55-N1PjVb6RJJF-3" value="Connect households and persons" style="rounded=1;whiteSpace=wrap;html=1;" parent="1" vertex="1">
          <mxGeometry x="-367" y="733" width="120" height="60" as="geometry" />
        </mxCell>
        <mxCell id="TVRkaX55-N1PjVb6RJJF-17" style="edgeStyle=orthogonalEdgeStyle;rounded=0;orthogonalLoop=1;jettySize=auto;html=1;exitX=0.5;exitY=1;exitDx=0;exitDy=0;entryX=0.5;entryY=0;entryDx=0;entryDy=0;" parent="1" source="TVRkaX55-N1PjVb6RJJF-4" target="TVRkaX55-N1PjVb6RJJF-6" edge="1">
          <mxGeometry relative="1" as="geometry" />
        </mxCell>
        <mxCell id="TVRkaX55-N1PjVb6RJJF-4" value="Struct learning" style="ellipse;whiteSpace=wrap;html=1;" parent="1" vertex="1">
          <mxGeometry x="280" y="-570" width="140" height="60" as="geometry" />
        </mxCell>
        <mxCell id="TVRkaX55-N1PjVb6RJJF-24" style="edgeStyle=orthogonalEdgeStyle;rounded=0;orthogonalLoop=1;jettySize=auto;html=1;exitX=0.5;exitY=1;exitDx=0;exitDy=0;entryX=0.5;entryY=0;entryDx=0;entryDy=0;" parent="1" source="TVRkaX55-N1PjVb6RJJF-6" target="TVRkaX55-N1PjVb6RJJF-21" edge="1">
          <mxGeometry relative="1" as="geometry" />
        </mxCell>
        <mxCell id="TVRkaX55-N1PjVb6RJJF-6" value="Para learning" style="ellipse;whiteSpace=wrap;html=1;" parent="1" vertex="1">
          <mxGeometry x="280" y="-480" width="140" height="60" as="geometry" />
        </mxCell>
        <mxCell id="TVRkaX55-N1PjVb6RJJF-26" style="edgeStyle=orthogonalEdgeStyle;rounded=0;orthogonalLoop=1;jettySize=auto;html=1;exitX=0.5;exitY=1;exitDx=0;exitDy=0;entryX=0.5;entryY=0;entryDx=0;entryDy=0;" parent="1" source="TVRkaX55-N1PjVb6RJJF-7" target="TVRkaX55-N1PjVb6RJJF-8" edge="1">
          <mxGeometry relative="1" as="geometry" />
        </mxCell>
        <mxCell id="TVRkaX55-N1PjVb6RJJF-28" style="edgeStyle=orthogonalEdgeStyle;rounded=0;orthogonalLoop=1;jettySize=auto;html=1;exitX=0;exitY=0.5;exitDx=0;exitDy=0;entryX=0.014;entryY=0.389;entryDx=0;entryDy=0;entryPerimeter=0;" parent="1" source="TVRkaX55-N1PjVb6RJJF-7" target="TVRkaX55-N1PjVb6RJJF-21" edge="1">
          <mxGeometry relative="1" as="geometry">
            <mxPoint x="250" y="-360" as="targetPoint" />
            <Array as="points">
              <mxPoint x="260" y="-270" />
              <mxPoint x="260" y="-360" />
              <mxPoint x="282" y="-360" />
            </Array>
          </mxGeometry>
        </mxCell>
        <mxCell id="TVRkaX55-N1PjVb6RJJF-7" value="Removing impossible" style="ellipse;whiteSpace=wrap;html=1;" parent="1" vertex="1">
          <mxGeometry x="280" y="-300" width="140" height="60" as="geometry" />
        </mxCell>
        <mxCell id="TVRkaX55-N1PjVb6RJJF-27" style="edgeStyle=orthogonalEdgeStyle;rounded=0;orthogonalLoop=1;jettySize=auto;html=1;exitX=0;exitY=0.5;exitDx=0;exitDy=0;entryX=0;entryY=0.5;entryDx=0;entryDy=0;" parent="1" source="TVRkaX55-N1PjVb6RJJF-8" target="TVRkaX55-N1PjVb6RJJF-21" edge="1">
          <mxGeometry relative="1" as="geometry">
            <Array as="points">
              <mxPoint x="240" y="-180" />
              <mxPoint x="240" y="-360" />
            </Array>
          </mxGeometry>
        </mxCell>
        <mxCell id="TVRkaX55-N1PjVb6RJJF-29" style="edgeStyle=orthogonalEdgeStyle;rounded=0;orthogonalLoop=1;jettySize=auto;html=1;exitX=0;exitY=0.5;exitDx=0;exitDy=0;entryX=0;entryY=0.5;entryDx=0;entryDy=0;" parent="1" source="TVRkaX55-N1PjVb6RJJF-8" target="TVRkaX55-N1PjVb6RJJF-6" edge="1">
          <mxGeometry relative="1" as="geometry">
            <Array as="points">
              <mxPoint x="220" y="-180" />
              <mxPoint x="220" y="-450" />
            </Array>
          </mxGeometry>
        </mxCell>
        <mxCell id="TVRkaX55-N1PjVb6RJJF-8" value="Match with total" style="ellipse;whiteSpace=wrap;html=1;" parent="1" vertex="1">
          <mxGeometry x="280" y="-210" width="140" height="60" as="geometry" />
        </mxCell>
        <mxCell id="TVRkaX55-N1PjVb6RJJF-9" value="Structure learning general (use all), OR, domain knowledge" style="text;html=1;strokeColor=none;fillColor=none;align=center;verticalAlign=middle;whiteSpace=wrap;rounded=0;" parent="1" vertex="1">
          <mxGeometry x="420" y="-540" width="200" height="30" as="geometry" />
        </mxCell>
        <mxCell id="TVRkaX55-N1PjVb6RJJF-10" value="Parameters learning individually (zonal), can combine with weights" style="text;html=1;strokeColor=none;fillColor=none;align=center;verticalAlign=middle;whiteSpace=wrap;rounded=0;" parent="1" vertex="1">
          <mxGeometry x="410" y="-440" width="210" height="30" as="geometry" />
        </mxCell>
        <mxCell id="TVRkaX55-N1PjVb6RJJF-11" value="Removing data that does not exist in seed data, OR, domain knowledge" style="text;html=1;strokeColor=none;fillColor=none;align=center;verticalAlign=middle;whiteSpace=wrap;rounded=0;" parent="1" vertex="1">
          <mxGeometry x="420" y="-260" width="220" height="30" as="geometry" />
        </mxCell>
        <mxCell id="TVRkaX55-N1PjVb6RJJF-12" value="Checking with control (total) data to see the differences" style="text;html=1;strokeColor=none;fillColor=none;align=center;verticalAlign=middle;whiteSpace=wrap;rounded=0;" parent="1" vertex="1">
          <mxGeometry x="430" y="-170" width="220" height="30" as="geometry" />
        </mxCell>
        <mxCell id="TVRkaX55-N1PjVb6RJJF-25" style="edgeStyle=orthogonalEdgeStyle;rounded=0;orthogonalLoop=1;jettySize=auto;html=1;exitX=0.5;exitY=1;exitDx=0;exitDy=0;entryX=0.5;entryY=0;entryDx=0;entryDy=0;" parent="1" source="TVRkaX55-N1PjVb6RJJF-21" target="TVRkaX55-N1PjVb6RJJF-7" edge="1">
          <mxGeometry relative="1" as="geometry" />
        </mxCell>
        <mxCell id="TVRkaX55-N1PjVb6RJJF-21" value="Generate data" style="ellipse;whiteSpace=wrap;html=1;" parent="1" vertex="1">
          <mxGeometry x="280" y="-390" width="140" height="60" as="geometry" />
        </mxCell>
        <mxCell id="TVRkaX55-N1PjVb6RJJF-22" value="Using the total number to generate data" style="text;html=1;strokeColor=none;fillColor=none;align=center;verticalAlign=middle;whiteSpace=wrap;rounded=0;" parent="1" vertex="1">
          <mxGeometry x="430" y="-350" width="180" height="30" as="geometry" />
        </mxCell>
        <mxCell id="TVRkaX55-N1PjVb6RJJF-44" style="edgeStyle=orthogonalEdgeStyle;rounded=0;orthogonalLoop=1;jettySize=auto;html=1;entryX=0.5;entryY=0;entryDx=0;entryDy=0;" parent="1" source="TVRkaX55-N1PjVb6RJJF-30" target="TVRkaX55-N1PjVb6RJJF-36" edge="1">
          <mxGeometry relative="1" as="geometry" />
        </mxCell>
        <mxCell id="TVRkaX55-N1PjVb6RJJF-30" value="Persons and/or households generation" style="ellipse;whiteSpace=wrap;html=1;" parent="1" vertex="1">
          <mxGeometry x="300" y="490" width="120" height="80" as="geometry" />
        </mxCell>
        <mxCell id="TVRkaX55-N1PjVb6RJJF-45" style="edgeStyle=orthogonalEdgeStyle;rounded=0;orthogonalLoop=1;jettySize=auto;html=1;exitX=0.5;exitY=1;exitDx=0;exitDy=0;entryX=0.5;entryY=0;entryDx=0;entryDy=0;" parent="1" source="TVRkaX55-N1PjVb6RJJF-36" target="TVRkaX55-N1PjVb6RJJF-38" edge="1">
          <mxGeometry relative="1" as="geometry" />
        </mxCell>
        <mxCell id="TVRkaX55-N1PjVb6RJJF-36" value="BN learning" style="ellipse;whiteSpace=wrap;html=1;" parent="1" vertex="1">
          <mxGeometry x="290" y="630" width="140" height="60" as="geometry" />
        </mxCell>
        <mxCell id="TVRkaX55-N1PjVb6RJJF-37" value="Learning a BN model of connection between households and persons" style="text;html=1;strokeColor=none;fillColor=none;align=center;verticalAlign=middle;whiteSpace=wrap;rounded=0;" parent="1" vertex="1">
          <mxGeometry x="440" y="660" width="200" height="30" as="geometry" />
        </mxCell>
        <mxCell id="TVRkaX55-N1PjVb6RJJF-46" style="edgeStyle=orthogonalEdgeStyle;rounded=0;orthogonalLoop=1;jettySize=auto;html=1;exitX=0.5;exitY=1;exitDx=0;exitDy=0;entryX=0.5;entryY=0;entryDx=0;entryDy=0;" parent="1" source="TVRkaX55-N1PjVb6RJJF-38" target="TVRkaX55-N1PjVb6RJJF-41" edge="1">
          <mxGeometry relative="1" as="geometry" />
        </mxCell>
        <mxCell id="TVRkaX55-N1PjVb6RJJF-38" value="Get persons" style="ellipse;whiteSpace=wrap;html=1;" parent="1" vertex="1">
          <mxGeometry x="290" y="720" width="140" height="60" as="geometry" />
        </mxCell>
        <mxCell id="TVRkaX55-N1PjVb6RJJF-39" value="Loop through households and use the BN model to SELECT the best group of people from the synthetic persons" style="text;html=1;strokeColor=none;fillColor=none;align=center;verticalAlign=middle;whiteSpace=wrap;rounded=0;" parent="1" vertex="1">
          <mxGeometry x="440" y="760" width="220" height="30" as="geometry" />
        </mxCell>
        <mxCell id="TVRkaX55-N1PjVb6RJJF-43" style="edgeStyle=orthogonalEdgeStyle;rounded=0;orthogonalLoop=1;jettySize=auto;html=1;entryX=0;entryY=0.5;entryDx=0;entryDy=0;" parent="1" source="TVRkaX55-N1PjVb6RJJF-41" target="TVRkaX55-N1PjVb6RJJF-30" edge="1">
          <mxGeometry relative="1" as="geometry">
            <Array as="points">
              <mxPoint x="250" y="850" />
              <mxPoint x="250" y="530" />
            </Array>
          </mxGeometry>
        </mxCell>
        <mxCell id="TVRkaX55-N1PjVb6RJJF-41" value="Matching" style="ellipse;whiteSpace=wrap;html=1;" parent="1" vertex="1">
          <mxGeometry x="290" y="820" width="140" height="60" as="geometry" />
        </mxCell>
        <mxCell id="TVRkaX55-N1PjVb6RJJF-42" value="Update the parameters of the households/ persons BN(s)" style="text;html=1;strokeColor=none;fillColor=none;align=center;verticalAlign=middle;whiteSpace=wrap;rounded=0;" parent="1" vertex="1">
          <mxGeometry x="430" y="550" width="220" height="30" as="geometry" />
        </mxCell>
        <mxCell id="TVRkaX55-N1PjVb6RJJF-47" value="If something (a threshold) is not correct, will run the persons/ households generation again to replace/add new persons" style="text;html=1;strokeColor=none;fillColor=none;align=center;verticalAlign=middle;whiteSpace=wrap;rounded=0;" parent="1" vertex="1">
          <mxGeometry x="440" y="860" width="210" height="30" as="geometry" />
        </mxCell>
        <mxCell id="YO9ZZh99iOmGWYp_lecW-4" value="" style="whiteSpace=wrap;html=1;aspect=fixed;fillStyle=hatch;dashed=1;" parent="1" vertex="1">
          <mxGeometry x="260" y="-580" width="170" height="170" as="geometry" />
        </mxCell>
        <mxCell id="YO9ZZh99iOmGWYp_lecW-5" value="BN Learning" style="text;html=1;align=center;verticalAlign=middle;resizable=0;points=[];autosize=1;strokeColor=none;fillColor=none;" parent="1" vertex="1">
          <mxGeometry x="170" y="-520" width="90" height="30" as="geometry" />
        </mxCell>
        <mxCell id="YO9ZZh99iOmGWYp_lecW-6" value="BN 1" style="text;html=1;strokeColor=none;fillColor=none;align=center;verticalAlign=middle;whiteSpace=wrap;rounded=0;dashed=1;fillStyle=hatch;" parent="1" vertex="1">
          <mxGeometry x="-285" y="380" width="60" height="30" as="geometry" />
        </mxCell>
        <mxCell id="YO9ZZh99iOmGWYp_lecW-8" value="BN 2" style="text;html=1;strokeColor=none;fillColor=none;align=center;verticalAlign=middle;whiteSpace=wrap;rounded=0;dashed=1;fillStyle=hatch;" parent="1" vertex="1">
          <mxGeometry x="-280" y="587" width="60" height="30" as="geometry" />
        </mxCell>
        <mxCell id="YO9ZZh99iOmGWYp_lecW-9" value="BN 3" style="text;html=1;strokeColor=none;fillColor=none;align=center;verticalAlign=middle;whiteSpace=wrap;rounded=0;dashed=1;fillStyle=hatch;" parent="1" vertex="1">
          <mxGeometry x="-280" y="808" width="60" height="30" as="geometry" />
        </mxCell>
        <mxCell id="8PlJDKlW-smJGi3nbmoQ-15" value="Only in first step" style="edgeStyle=orthogonalEdgeStyle;rounded=0;orthogonalLoop=1;jettySize=auto;html=1;exitX=0.5;exitY=1;exitDx=0;exitDy=0;entryX=0.5;entryY=0;entryDx=0;entryDy=0;dashed=1;" edge="1" parent="1" source="8PlJDKlW-smJGi3nbmoQ-2" target="8PlJDKlW-smJGi3nbmoQ-4">
          <mxGeometry relative="1" as="geometry" />
        </mxCell>
        <mxCell id="8PlJDKlW-smJGi3nbmoQ-56" style="edgeStyle=orthogonalEdgeStyle;rounded=0;orthogonalLoop=1;jettySize=auto;html=1;exitX=1;exitY=0.5;exitDx=0;exitDy=0;entryX=1;entryY=0.5;entryDx=0;entryDy=0;" edge="1" parent="1" source="8PlJDKlW-smJGi3nbmoQ-2" target="8PlJDKlW-smJGi3nbmoQ-9">
          <mxGeometry relative="1" as="geometry" />
        </mxCell>
        <mxCell id="8PlJDKlW-smJGi3nbmoQ-57" value="gene differ tool" style="edgeLabel;html=1;align=center;verticalAlign=middle;resizable=0;points=[];" vertex="1" connectable="0" parent="8PlJDKlW-smJGi3nbmoQ-56">
          <mxGeometry x="-0.2579" y="2" relative="1" as="geometry">
            <mxPoint as="offset" />
          </mxGeometry>
        </mxCell>
        <mxCell id="8PlJDKlW-smJGi3nbmoQ-2" value="BN&amp;nbsp;" style="rounded=0;whiteSpace=wrap;html=1;" vertex="1" parent="1">
          <mxGeometry x="-556" y="-622" width="120" height="60" as="geometry" />
        </mxCell>
        <mxCell id="8PlJDKlW-smJGi3nbmoQ-16" style="edgeStyle=orthogonalEdgeStyle;rounded=0;orthogonalLoop=1;jettySize=auto;html=1;exitX=1;exitY=0.5;exitDx=0;exitDy=0;entryX=0.5;entryY=0;entryDx=0;entryDy=0;" edge="1" parent="1" source="8PlJDKlW-smJGi3nbmoQ-4" target="8PlJDKlW-smJGi3nbmoQ-9">
          <mxGeometry relative="1" as="geometry" />
        </mxCell>
        <mxCell id="8PlJDKlW-smJGi3nbmoQ-4" value="solution(s)" style="ellipse;whiteSpace=wrap;html=1;aspect=fixed;" vertex="1" parent="1">
          <mxGeometry x="-536" y="-504" width="80" height="80" as="geometry" />
        </mxCell>
        <mxCell id="8PlJDKlW-smJGi3nbmoQ-17" style="edgeStyle=orthogonalEdgeStyle;rounded=0;orthogonalLoop=1;jettySize=auto;html=1;exitX=0.5;exitY=1;exitDx=0;exitDy=0;entryX=1;entryY=0.5;entryDx=0;entryDy=0;" edge="1" parent="1" source="8PlJDKlW-smJGi3nbmoQ-9" target="8PlJDKlW-smJGi3nbmoQ-10">
          <mxGeometry relative="1" as="geometry" />
        </mxCell>
        <mxCell id="8PlJDKlW-smJGi3nbmoQ-9" value="Mutation on the best (1 individual)" style="rhombus;whiteSpace=wrap;html=1;" vertex="1" parent="1">
          <mxGeometry x="-347" y="-438" width="120" height="80" as="geometry" />
        </mxCell>
        <mxCell id="8PlJDKlW-smJGi3nbmoQ-19" style="edgeStyle=orthogonalEdgeStyle;rounded=0;orthogonalLoop=1;jettySize=auto;html=1;entryX=1;entryY=0.5;entryDx=0;entryDy=0;exitX=0.5;exitY=1;exitDx=0;exitDy=0;" edge="1" parent="1" source="8PlJDKlW-smJGi3nbmoQ-10" target="8PlJDKlW-smJGi3nbmoQ-11">
          <mxGeometry relative="1" as="geometry" />
        </mxCell>
        <mxCell id="8PlJDKlW-smJGi3nbmoQ-10" value="Extended solutions&amp;nbsp;" style="ellipse;whiteSpace=wrap;html=1;aspect=fixed;" vertex="1" parent="1">
          <mxGeometry x="-406" y="-281" width="80" height="80" as="geometry" />
        </mxCell>
        <mxCell id="8PlJDKlW-smJGi3nbmoQ-20" style="edgeStyle=orthogonalEdgeStyle;rounded=0;orthogonalLoop=1;jettySize=auto;html=1;exitX=0;exitY=0.5;exitDx=0;exitDy=0;entryX=0.5;entryY=1;entryDx=0;entryDy=0;" edge="1" parent="1" source="8PlJDKlW-smJGi3nbmoQ-11" target="8PlJDKlW-smJGi3nbmoQ-12">
          <mxGeometry relative="1" as="geometry" />
        </mxCell>
        <mxCell id="8PlJDKlW-smJGi3nbmoQ-11" value="Crossover on the best (2 individuals)" style="rhombus;whiteSpace=wrap;html=1;" vertex="1" parent="1">
          <mxGeometry x="-558" y="-190" width="133" height="80" as="geometry" />
        </mxCell>
        <mxCell id="8PlJDKlW-smJGi3nbmoQ-21" style="edgeStyle=orthogonalEdgeStyle;rounded=0;orthogonalLoop=1;jettySize=auto;html=1;entryX=0.5;entryY=1;entryDx=0;entryDy=0;exitX=0;exitY=0.5;exitDx=0;exitDy=0;" edge="1" parent="1" source="8PlJDKlW-smJGi3nbmoQ-12" target="8PlJDKlW-smJGi3nbmoQ-14">
          <mxGeometry relative="1" as="geometry" />
        </mxCell>
        <mxCell id="8PlJDKlW-smJGi3nbmoQ-12" value="Extended solutions&amp;nbsp;" style="ellipse;whiteSpace=wrap;html=1;aspect=fixed;" vertex="1" parent="1">
          <mxGeometry x="-656" y="-285" width="80" height="80" as="geometry" />
        </mxCell>
        <mxCell id="8PlJDKlW-smJGi3nbmoQ-22" style="edgeStyle=orthogonalEdgeStyle;rounded=0;orthogonalLoop=1;jettySize=auto;html=1;exitX=0.5;exitY=0;exitDx=0;exitDy=0;entryX=0;entryY=0.5;entryDx=0;entryDy=0;" edge="1" parent="1" source="8PlJDKlW-smJGi3nbmoQ-14" target="8PlJDKlW-smJGi3nbmoQ-4">
          <mxGeometry relative="1" as="geometry" />
        </mxCell>
        <mxCell id="8PlJDKlW-smJGi3nbmoQ-29" style="edgeStyle=orthogonalEdgeStyle;rounded=0;orthogonalLoop=1;jettySize=auto;html=1;exitX=0;exitY=0.5;exitDx=0;exitDy=0;entryX=0;entryY=0.5;entryDx=0;entryDy=0;" edge="1" parent="1" source="8PlJDKlW-smJGi3nbmoQ-14" target="8PlJDKlW-smJGi3nbmoQ-2">
          <mxGeometry relative="1" as="geometry" />
        </mxCell>
        <mxCell id="8PlJDKlW-smJGi3nbmoQ-30" value="Relearn the BN" style="edgeLabel;html=1;align=center;verticalAlign=middle;resizable=0;points=[];" vertex="1" connectable="0" parent="8PlJDKlW-smJGi3nbmoQ-29">
          <mxGeometry x="0.1298" relative="1" as="geometry">
            <mxPoint x="16" as="offset" />
          </mxGeometry>
        </mxCell>
        <mxCell id="8PlJDKlW-smJGi3nbmoQ-14" value="Keeping the best only (10 individuals)" style="rhombus;whiteSpace=wrap;html=1;" vertex="1" parent="1">
          <mxGeometry x="-759" y="-440" width="120" height="80" as="geometry" />
        </mxCell>
        <mxCell id="8PlJDKlW-smJGi3nbmoQ-35" style="edgeStyle=orthogonalEdgeStyle;rounded=0;orthogonalLoop=1;jettySize=auto;html=1;entryX=0.461;entryY=0.024;entryDx=0;entryDy=0;entryPerimeter=0;" edge="1" parent="1" source="8PlJDKlW-smJGi3nbmoQ-25" target="8PlJDKlW-smJGi3nbmoQ-26">
          <mxGeometry relative="1" as="geometry" />
        </mxCell>
        <mxCell id="8PlJDKlW-smJGi3nbmoQ-25" value="Select the first best" style="shape=hexagon;perimeter=hexagonPerimeter2;whiteSpace=wrap;html=1;fixedSize=1;" vertex="1" parent="1">
          <mxGeometry x="-1091.5" y="-685" width="120" height="80" as="geometry" />
        </mxCell>
        <mxCell id="8PlJDKlW-smJGi3nbmoQ-36" style="edgeStyle=orthogonalEdgeStyle;rounded=0;orthogonalLoop=1;jettySize=auto;html=1;exitX=0.5;exitY=1;exitDx=0;exitDy=0;" edge="1" parent="1" source="8PlJDKlW-smJGi3nbmoQ-26" target="8PlJDKlW-smJGi3nbmoQ-27">
          <mxGeometry relative="1" as="geometry" />
        </mxCell>
        <mxCell id="8PlJDKlW-smJGi3nbmoQ-37" style="edgeStyle=orthogonalEdgeStyle;rounded=0;orthogonalLoop=1;jettySize=auto;html=1;" edge="1" parent="1" source="8PlJDKlW-smJGi3nbmoQ-27" target="8PlJDKlW-smJGi3nbmoQ-31">
          <mxGeometry relative="1" as="geometry" />
        </mxCell>
        <mxCell id="8PlJDKlW-smJGi3nbmoQ-27" value="Select 3 attributes that has the closest distribution to the real one from census" style="shape=hexagon;perimeter=hexagonPerimeter2;whiteSpace=wrap;html=1;fixedSize=1;" vertex="1" parent="1">
          <mxGeometry x="-1118.5" y="-470" width="189" height="74" as="geometry" />
        </mxCell>
        <mxCell id="8PlJDKlW-smJGi3nbmoQ-38" style="edgeStyle=orthogonalEdgeStyle;rounded=0;orthogonalLoop=1;jettySize=auto;html=1;exitX=0.5;exitY=1;exitDx=0;exitDy=0;entryX=0.5;entryY=0;entryDx=0;entryDy=0;" edge="1" parent="1" source="8PlJDKlW-smJGi3nbmoQ-31" target="8PlJDKlW-smJGi3nbmoQ-32">
          <mxGeometry relative="1" as="geometry" />
        </mxCell>
        <mxCell id="8PlJDKlW-smJGi3nbmoQ-31" value="In the mutation part, keep those 3 attributes same, the rest will be inferenced again using the BN" style="shape=hexagon;perimeter=hexagonPerimeter2;whiteSpace=wrap;html=1;fixedSize=1;" vertex="1" parent="1">
          <mxGeometry x="-1136.5" y="-366" width="225" height="80" as="geometry" />
        </mxCell>
        <mxCell id="8PlJDKlW-smJGi3nbmoQ-39" style="edgeStyle=orthogonalEdgeStyle;rounded=0;orthogonalLoop=1;jettySize=auto;html=1;exitX=0.5;exitY=1;exitDx=0;exitDy=0;" edge="1" parent="1" source="8PlJDKlW-smJGi3nbmoQ-32" target="8PlJDKlW-smJGi3nbmoQ-33">
          <mxGeometry relative="1" as="geometry" />
        </mxCell>
        <mxCell id="8PlJDKlW-smJGi3nbmoQ-32" value="Combine the 2 parts to create the final mutated individual" style="shape=hexagon;perimeter=hexagonPerimeter2;whiteSpace=wrap;html=1;fixedSize=1;" vertex="1" parent="1">
          <mxGeometry x="-1078.5" y="-259" width="120" height="80" as="geometry" />
        </mxCell>
        <mxCell id="8PlJDKlW-smJGi3nbmoQ-42" style="edgeStyle=orthogonalEdgeStyle;rounded=0;orthogonalLoop=1;jettySize=auto;html=1;entryX=1;entryY=0.5;entryDx=0;entryDy=0;" edge="1" parent="1" source="8PlJDKlW-smJGi3nbmoQ-33" target="8PlJDKlW-smJGi3nbmoQ-26">
          <mxGeometry relative="1" as="geometry">
            <Array as="points">
              <mxPoint x="-873.5" y="-113" />
              <mxPoint x="-873.5" y="-540" />
            </Array>
          </mxGeometry>
        </mxCell>
        <mxCell id="8PlJDKlW-smJGi3nbmoQ-33" value="Repeat the whole thing again for another individual" style="shape=hexagon;perimeter=hexagonPerimeter2;whiteSpace=wrap;html=1;fixedSize=1;" vertex="1" parent="1">
          <mxGeometry x="-1078.5" y="-153" width="120" height="80" as="geometry" />
        </mxCell>
        <mxCell id="8PlJDKlW-smJGi3nbmoQ-43" value="" style="swimlane;startSize=0;" vertex="1" parent="1">
          <mxGeometry x="-1188" y="-710" width="328" height="654" as="geometry">
            <mxRectangle x="-219.5" y="-736" width="50" height="44" as="alternateBounds" />
          </mxGeometry>
        </mxCell>
        <mxCell id="8PlJDKlW-smJGi3nbmoQ-44" value="Mutation" style="text;html=1;align=center;verticalAlign=middle;resizable=0;points=[];autosize=1;strokeColor=none;fillColor=none;" vertex="1" parent="8PlJDKlW-smJGi3nbmoQ-43">
          <mxGeometry x="21.5" y="5" width="64" height="26" as="geometry" />
        </mxCell>
        <mxCell id="8PlJDKlW-smJGi3nbmoQ-26" value="Partition randomly the individual into 2 parts: the keep and the mutation (4:1)" style="shape=hexagon;perimeter=hexagonPerimeter2;whiteSpace=wrap;html=1;fixedSize=1;" vertex="1" parent="8PlJDKlW-smJGi3nbmoQ-43">
          <mxGeometry x="54.75" y="130" width="218.5" height="80" as="geometry" />
        </mxCell>
        <mxCell id="8PlJDKlW-smJGi3nbmoQ-51" value="" style="edgeStyle=orthogonalEdgeStyle;rounded=0;orthogonalLoop=1;jettySize=auto;html=1;" edge="1" parent="1" source="8PlJDKlW-smJGi3nbmoQ-45" target="8PlJDKlW-smJGi3nbmoQ-47">
          <mxGeometry relative="1" as="geometry" />
        </mxCell>
        <mxCell id="8PlJDKlW-smJGi3nbmoQ-45" value="Select the 2 best as parents" style="shape=hexagon;perimeter=hexagonPerimeter2;whiteSpace=wrap;html=1;fixedSize=1;" vertex="1" parent="1">
          <mxGeometry x="-1533" y="-655" width="120" height="80" as="geometry" />
        </mxCell>
        <mxCell id="8PlJDKlW-smJGi3nbmoQ-52" value="" style="edgeStyle=orthogonalEdgeStyle;rounded=0;orthogonalLoop=1;jettySize=auto;html=1;" edge="1" parent="1" source="8PlJDKlW-smJGi3nbmoQ-47" target="8PlJDKlW-smJGi3nbmoQ-48">
          <mxGeometry relative="1" as="geometry" />
        </mxCell>
        <mxCell id="8PlJDKlW-smJGi3nbmoQ-47" value="Partition randomly each into 2 parts: the keep and the cross (3:1)" style="shape=hexagon;perimeter=hexagonPerimeter2;whiteSpace=wrap;html=1;fixedSize=1;" vertex="1" parent="1">
          <mxGeometry x="-1546" y="-522" width="146" height="80" as="geometry" />
        </mxCell>
        <mxCell id="8PlJDKlW-smJGi3nbmoQ-53" value="" style="edgeStyle=orthogonalEdgeStyle;rounded=0;orthogonalLoop=1;jettySize=auto;html=1;" edge="1" parent="1" source="8PlJDKlW-smJGi3nbmoQ-48" target="8PlJDKlW-smJGi3nbmoQ-49">
          <mxGeometry relative="1" as="geometry" />
        </mxCell>
        <mxCell id="8PlJDKlW-smJGi3nbmoQ-48" value="Swap the cross part of the 2 parents" style="shape=hexagon;perimeter=hexagonPerimeter2;whiteSpace=wrap;html=1;fixedSize=1;" vertex="1" parent="1">
          <mxGeometry x="-1533" y="-401" width="120" height="80" as="geometry" />
        </mxCell>
        <mxCell id="8PlJDKlW-smJGi3nbmoQ-49" value="By that, create 2 offsprings" style="shape=hexagon;perimeter=hexagonPerimeter2;whiteSpace=wrap;html=1;fixedSize=1;" vertex="1" parent="1">
          <mxGeometry x="-1533" y="-285" width="120" height="80" as="geometry" />
        </mxCell>
        <mxCell id="8PlJDKlW-smJGi3nbmoQ-54" value="" style="swimlane;startSize=0;" vertex="1" parent="1">
          <mxGeometry x="-1609" y="-710" width="281" height="552" as="geometry" />
        </mxCell>
        <mxCell id="8PlJDKlW-smJGi3nbmoQ-55" value="Crossover" style="text;html=1;align=center;verticalAlign=middle;resizable=0;points=[];autosize=1;strokeColor=none;fillColor=none;" vertex="1" parent="8PlJDKlW-smJGi3nbmoQ-54">
          <mxGeometry x="17" y="7" width="73" height="26" as="geometry" />
        </mxCell>
      </root>
    </mxGraphModel>
  </diagram>
  <diagram id="jBi_iQWRpPHf4AwMZCda" name="Page-2">
    <mxGraphModel dx="1211" dy="656" grid="1" gridSize="10" guides="1" tooltips="1" connect="1" arrows="1" fold="1" page="1" pageScale="1" pageWidth="827" pageHeight="1169" math="0" shadow="0">
      <root>
        <mxCell id="0" />
        <mxCell id="1" parent="0" />
        <mxCell id="CyZcmRv1s8RUcZY6BQQJ-1" style="edgeStyle=orthogonalEdgeStyle;rounded=0;orthogonalLoop=1;jettySize=auto;html=1;exitX=0.5;exitY=1;exitDx=0;exitDy=0;entryX=0.5;entryY=0;entryDx=0;entryDy=0;" edge="1" parent="1" source="t-D8adT_xSnt8OAiUW1n-1" target="t-D8adT_xSnt8OAiUW1n-3">
          <mxGeometry relative="1" as="geometry" />
        </mxCell>
        <mxCell id="t-D8adT_xSnt8OAiUW1n-1" value="Struct learning" style="ellipse;whiteSpace=wrap;html=1;" vertex="1" parent="1">
          <mxGeometry x="290" y="20" width="140" height="60" as="geometry" />
        </mxCell>
        <mxCell id="t-D8adT_xSnt8OAiUW1n-2" style="edgeStyle=orthogonalEdgeStyle;rounded=0;orthogonalLoop=1;jettySize=auto;html=1;exitX=0.5;exitY=1;exitDx=0;exitDy=0;entryX=0.5;entryY=0;entryDx=0;entryDy=0;" edge="1" parent="1" source="t-D8adT_xSnt8OAiUW1n-3" target="t-D8adT_xSnt8OAiUW1n-11">
          <mxGeometry relative="1" as="geometry" />
        </mxCell>
        <mxCell id="t-D8adT_xSnt8OAiUW1n-3" value="Para learning" style="ellipse;whiteSpace=wrap;html=1;" vertex="1" parent="1">
          <mxGeometry x="290" y="110" width="140" height="60" as="geometry" />
        </mxCell>
        <mxCell id="t-D8adT_xSnt8OAiUW1n-4" style="edgeStyle=orthogonalEdgeStyle;rounded=0;orthogonalLoop=1;jettySize=auto;html=1;exitX=0.5;exitY=1;exitDx=0;exitDy=0;entryX=0.5;entryY=0;entryDx=0;entryDy=0;" edge="1" parent="1" source="t-D8adT_xSnt8OAiUW1n-6" target="t-D8adT_xSnt8OAiUW1n-9">
          <mxGeometry relative="1" as="geometry" />
        </mxCell>
        <mxCell id="t-D8adT_xSnt8OAiUW1n-5" style="edgeStyle=orthogonalEdgeStyle;rounded=0;orthogonalLoop=1;jettySize=auto;html=1;exitX=0;exitY=0.5;exitDx=0;exitDy=0;entryX=0.014;entryY=0.389;entryDx=0;entryDy=0;entryPerimeter=0;" edge="1" parent="1" source="t-D8adT_xSnt8OAiUW1n-6" target="t-D8adT_xSnt8OAiUW1n-11">
          <mxGeometry relative="1" as="geometry">
            <mxPoint x="260" y="230" as="targetPoint" />
            <Array as="points">
              <mxPoint x="270" y="320" />
              <mxPoint x="270" y="230" />
              <mxPoint x="292" y="230" />
            </Array>
          </mxGeometry>
        </mxCell>
        <mxCell id="t-D8adT_xSnt8OAiUW1n-6" value="Removing impossible" style="ellipse;whiteSpace=wrap;html=1;" vertex="1" parent="1">
          <mxGeometry x="290" y="290" width="140" height="60" as="geometry" />
        </mxCell>
        <mxCell id="t-D8adT_xSnt8OAiUW1n-7" style="edgeStyle=orthogonalEdgeStyle;rounded=0;orthogonalLoop=1;jettySize=auto;html=1;exitX=0;exitY=0.5;exitDx=0;exitDy=0;entryX=0;entryY=0.5;entryDx=0;entryDy=0;" edge="1" parent="1" source="t-D8adT_xSnt8OAiUW1n-9" target="t-D8adT_xSnt8OAiUW1n-11">
          <mxGeometry relative="1" as="geometry">
            <Array as="points">
              <mxPoint x="250" y="410" />
              <mxPoint x="250" y="230" />
            </Array>
          </mxGeometry>
        </mxCell>
        <mxCell id="t-D8adT_xSnt8OAiUW1n-8" style="edgeStyle=orthogonalEdgeStyle;rounded=0;orthogonalLoop=1;jettySize=auto;html=1;exitX=0;exitY=0.5;exitDx=0;exitDy=0;entryX=0;entryY=0.5;entryDx=0;entryDy=0;" edge="1" parent="1" source="t-D8adT_xSnt8OAiUW1n-9" target="t-D8adT_xSnt8OAiUW1n-3">
          <mxGeometry relative="1" as="geometry">
            <Array as="points">
              <mxPoint x="230" y="410" />
              <mxPoint x="230" y="140" />
            </Array>
          </mxGeometry>
        </mxCell>
        <mxCell id="t-D8adT_xSnt8OAiUW1n-9" value="Match with total" style="ellipse;whiteSpace=wrap;html=1;" vertex="1" parent="1">
          <mxGeometry x="290" y="380" width="140" height="60" as="geometry" />
        </mxCell>
        <mxCell id="t-D8adT_xSnt8OAiUW1n-10" style="edgeStyle=orthogonalEdgeStyle;rounded=0;orthogonalLoop=1;jettySize=auto;html=1;exitX=0.5;exitY=1;exitDx=0;exitDy=0;entryX=0.5;entryY=0;entryDx=0;entryDy=0;" edge="1" parent="1" source="t-D8adT_xSnt8OAiUW1n-11" target="t-D8adT_xSnt8OAiUW1n-6">
          <mxGeometry relative="1" as="geometry" />
        </mxCell>
        <mxCell id="t-D8adT_xSnt8OAiUW1n-11" value="Generate data" style="ellipse;whiteSpace=wrap;html=1;" vertex="1" parent="1">
          <mxGeometry x="290" y="200" width="140" height="60" as="geometry" />
        </mxCell>
        <mxCell id="vTW-B0mnjMxtPzfEoq91-1" value="(1) using data, (2) using domain knowledge, (3) mix&lt;br&gt;(&lt;span style=&quot;color: rgb(34, 34, 34); font-family: Arial, sans-serif; font-size: 13px; text-align: left; background-color: rgb(255, 255, 255);&quot;&gt;Scanagatta 2019)&lt;/span&gt;" style="text;html=1;strokeColor=none;fillColor=none;align=center;verticalAlign=middle;whiteSpace=wrap;rounded=0;" vertex="1" parent="1">
          <mxGeometry x="430" y="50" width="310" height="30" as="geometry" />
        </mxCell>
        <mxCell id="vTW-B0mnjMxtPzfEoq91-2" value="&lt;span style=&quot;color: rgb(34, 34, 34); font-family: Arial, sans-serif; font-size: 13px; text-align: left; background-color: rgb(255, 255, 255);&quot;&gt;Learn with weights:&amp;nbsp; Zaidi 2017&lt;br&gt;Update:&amp;nbsp;&lt;/span&gt;&lt;span style=&quot;color: rgb(34, 34, 34); font-family: Arial, sans-serif; font-size: 13px; text-align: left; background-color: rgb(255, 255, 255);&quot;&gt;Bauer 2013&lt;/span&gt;&lt;span style=&quot;color: rgb(34, 34, 34); font-family: Arial, sans-serif; font-size: 13px; text-align: left; background-color: rgb(255, 255, 255);&quot;&gt;&lt;br&gt;&lt;/span&gt;" style="text;html=1;strokeColor=none;fillColor=none;align=center;verticalAlign=middle;whiteSpace=wrap;rounded=0;" vertex="1" parent="1">
          <mxGeometry x="354" y="140" width="360" height="30" as="geometry" />
        </mxCell>
        <mxCell id="vTW-B0mnjMxtPzfEoq91-3" value="Sun 2015,&amp;nbsp;&lt;span style=&quot;color: rgb(34, 34, 34); font-family: Arial, sans-serif; font-size: 13px; text-align: left; background-color: rgb(255, 255, 255);&quot;&gt;Tang 2020 (hierchy)&lt;/span&gt;" style="text;html=1;strokeColor=none;fillColor=none;align=center;verticalAlign=middle;whiteSpace=wrap;rounded=0;" vertex="1" parent="1">
          <mxGeometry x="110" y="80" width="170" height="30" as="geometry" />
        </mxCell>
        <mxCell id="vTW-B0mnjMxtPzfEoq91-4" value="HMM (Saadi 2016), DGM (Borysov 2019)" style="text;html=1;strokeColor=none;fillColor=none;align=center;verticalAlign=middle;whiteSpace=wrap;rounded=0;" vertex="1" parent="1">
          <mxGeometry x="414" y="230" width="300" height="30" as="geometry" />
        </mxCell>
        <mxCell id="WMcwPhSTtRKZRg1TEZBr-1" value="Incorporate expert knowledge" style="text;html=1;strokeColor=none;fillColor=none;align=center;verticalAlign=middle;whiteSpace=wrap;rounded=0;" vertex="1" parent="1">
          <mxGeometry x="450" y="330" width="120" height="30" as="geometry" />
        </mxCell>
        <mxCell id="WMcwPhSTtRKZRg1TEZBr-3" value="CO method (Williamson 2013)" style="text;html=1;strokeColor=none;fillColor=none;align=center;verticalAlign=middle;whiteSpace=wrap;rounded=0;" vertex="1" parent="1">
          <mxGeometry x="450" y="420" width="180" height="30" as="geometry" />
        </mxCell>
      </root>
    </mxGraphModel>
  </diagram>
  <diagram id="Am2zSR0PrbhMlrScB6fN" name="Page-3">
    <mxGraphModel dx="1332" dy="722" grid="1" gridSize="10" guides="1" tooltips="1" connect="1" arrows="1" fold="1" page="1" pageScale="1" pageWidth="827" pageHeight="1169" math="0" shadow="0">
      <root>
        <mxCell id="0" />
        <mxCell id="1" parent="0" />
        <mxCell id="2qoX8Beb5AlpvP6aSm4o-1" style="edgeStyle=orthogonalEdgeStyle;rounded=0;orthogonalLoop=1;jettySize=auto;html=1;" edge="1" parent="1" source="2qoX8Beb5AlpvP6aSm4o-2" target="2qoX8Beb5AlpvP6aSm4o-4">
          <mxGeometry relative="1" as="geometry" />
        </mxCell>
        <mxCell id="2qoX8Beb5AlpvP6aSm4o-2" value="Households generation" style="rounded=1;whiteSpace=wrap;html=1;" vertex="1" parent="1">
          <mxGeometry x="250" y="320" width="120" height="60" as="geometry" />
        </mxCell>
        <mxCell id="2qoX8Beb5AlpvP6aSm4o-3" style="edgeStyle=orthogonalEdgeStyle;rounded=0;orthogonalLoop=1;jettySize=auto;html=1;exitX=0.5;exitY=1;exitDx=0;exitDy=0;entryX=0.5;entryY=0;entryDx=0;entryDy=0;" edge="1" parent="1" source="2qoX8Beb5AlpvP6aSm4o-4" target="2qoX8Beb5AlpvP6aSm4o-6">
          <mxGeometry relative="1" as="geometry" />
        </mxCell>
        <mxCell id="2qoX8Beb5AlpvP6aSm4o-4" value="Persons generation" style="rounded=1;whiteSpace=wrap;html=1;" vertex="1" parent="1">
          <mxGeometry x="250" y="480" width="120" height="60" as="geometry" />
        </mxCell>
        <mxCell id="2qoX8Beb5AlpvP6aSm4o-5" style="edgeStyle=orthogonalEdgeStyle;rounded=0;orthogonalLoop=1;jettySize=auto;html=1;exitX=0;exitY=0.5;exitDx=0;exitDy=0;entryX=0;entryY=0.5;entryDx=0;entryDy=0;" edge="1" parent="1" source="2qoX8Beb5AlpvP6aSm4o-6" target="2qoX8Beb5AlpvP6aSm4o-4">
          <mxGeometry relative="1" as="geometry">
            <Array as="points">
              <mxPoint x="210" y="730" />
              <mxPoint x="210" y="510" />
            </Array>
          </mxGeometry>
        </mxCell>
        <mxCell id="2qoX8Beb5AlpvP6aSm4o-6" value="Connect households and persons" style="rounded=1;whiteSpace=wrap;html=1;" vertex="1" parent="1">
          <mxGeometry x="250" y="700" width="120" height="60" as="geometry" />
        </mxCell>
        <mxCell id="OWdBrX653BMPkTsETVAO-2" value="Sun 2018 (hierchy)&lt;br&gt;Zhang 2019 (connected)" style="text;html=1;strokeColor=none;fillColor=none;align=center;verticalAlign=middle;whiteSpace=wrap;rounded=0;" vertex="1" parent="1">
          <mxGeometry x="380" y="730" width="170" height="30" as="geometry" />
        </mxCell>
        <mxCell id="OWdBrX653BMPkTsETVAO-4" value="CO method (Williamson 2013)" style="text;html=1;strokeColor=none;fillColor=none;align=center;verticalAlign=middle;whiteSpace=wrap;rounded=0;" vertex="1" parent="1">
          <mxGeometry x="60" y="590" width="240" height="30" as="geometry" />
        </mxCell>
        <mxCell id="CHnHmF19EO_eBftaqOEm-1" value="Optimization: like hill climbing" style="text;html=1;strokeColor=none;fillColor=none;align=center;verticalAlign=middle;whiteSpace=wrap;rounded=0;" vertex="1" parent="1">
          <mxGeometry x="100" y="620" width="120" height="30" as="geometry" />
        </mxCell>
      </root>
    </mxGraphModel>
  </diagram>
  <diagram id="fM_Qc8-_lv7H8_N84h_I" name="Page-4">
    <mxGraphModel dx="666" dy="361" grid="1" gridSize="10" guides="1" tooltips="1" connect="1" arrows="1" fold="1" page="1" pageScale="1" pageWidth="827" pageHeight="1169" math="0" shadow="0">
      <root>
        <mxCell id="0" />
        <mxCell id="1" parent="0" />
      </root>
    </mxGraphModel>
  </diagram>
</mxfile>
